<svg width="77" height="81" viewBox="0 0 77 81" fill="none" xmlns="http://www.w3.org/2000/svg">
<path d="M10.488 9.02H15.124L25.384 36H19.988L17.48 29.274H8.056L5.586 36H0.19L10.488 9.02ZM16.53 25.588L12.806 14.986L8.93 25.588H16.53ZM33.4839 36.38C31.4319 36.38 29.8739 35.7213 28.8099 34.404C27.7459 33.0867 27.2139 31.136 27.2139 28.552V16.088H32.3059V27.45C32.3059 30.5153 33.4079 32.048 35.6119 32.048C36.5999 32.048 37.5499 31.7567 38.4619 31.174C39.3993 30.566 40.1593 29.654 40.7419 28.438V16.088H45.8339V30.148C45.8339 30.68 45.9226 31.06 46.0999 31.288C46.3026 31.516 46.6193 31.6427 47.0499 31.668V36C46.5433 36.1013 46.1126 36.1647 45.7579 36.19C45.4286 36.2153 45.1246 36.228 44.8459 36.228C43.9339 36.228 43.1866 36.0253 42.6039 35.62C42.0466 35.1893 41.7173 34.6067 41.6159 33.872L41.5019 32.276C40.6153 33.644 39.4753 34.67 38.0819 35.354C36.6886 36.038 35.1559 36.38 33.4839 36.38ZM58.4182 36.38C56.7462 36.38 55.1122 36.114 53.5162 35.582C51.9202 35.05 50.5522 34.29 49.4122 33.302L51.3122 30.11C52.5282 30.9713 53.7062 31.63 54.8462 32.086C56.0115 32.5167 57.1642 32.732 58.3042 32.732C59.3175 32.732 60.1155 32.542 60.6982 32.162C61.2808 31.782 61.5722 31.2373 61.5722 30.528C61.5722 29.8187 61.2302 29.2993 60.5462 28.97C59.8622 28.6407 58.7475 28.2607 57.2022 27.83C55.9102 27.4753 54.8082 27.1333 53.8962 26.804C52.9842 26.4747 52.2495 26.1073 51.6922 25.702C51.1348 25.2713 50.7295 24.79 50.4762 24.258C50.2228 23.7007 50.0962 23.042 50.0962 22.282C50.0962 21.2687 50.2862 20.3567 50.6662 19.546C51.0715 18.7353 51.6288 18.0513 52.3382 17.494C53.0475 16.9113 53.8708 16.468 54.8082 16.164C55.7708 15.86 56.8095 15.708 57.9242 15.708C59.4188 15.708 60.8122 15.9233 62.1042 16.354C63.4215 16.7847 64.6248 17.4813 65.7142 18.444L63.6622 21.522C62.6488 20.762 61.6608 20.2047 60.6982 19.85C59.7608 19.4953 58.8235 19.318 57.8862 19.318C57.0248 19.318 56.3028 19.4953 55.7202 19.85C55.1375 20.2047 54.8462 20.7747 54.8462 21.56C54.8462 21.9147 54.9095 22.206 55.0362 22.434C55.1882 22.662 55.4162 22.8647 55.7202 23.042C56.0242 23.2193 56.4168 23.3967 56.8982 23.574C57.4048 23.726 58.0255 23.8907 58.7602 24.068C60.1282 24.4227 61.2935 24.7773 62.2562 25.132C63.2442 25.4867 64.0422 25.892 64.6502 26.348C65.2835 26.804 65.7395 27.336 66.0182 27.944C66.3222 28.5267 66.4742 29.236 66.4742 30.072C66.4742 32.0227 65.7522 33.568 64.3082 34.708C62.8642 35.8227 60.9008 36.38 58.4182 36.38Z" fill="black"/>
<path d="M2.812 72V45.02H14.25C15.4913 45.02 16.6313 45.286 17.67 45.818C18.734 46.3247 19.646 47.0087 20.406 47.87C21.166 48.706 21.7613 49.6687 22.192 50.758C22.6227 51.822 22.838 52.8987 22.838 53.988C22.838 55.128 22.6353 56.2427 22.23 57.332C21.8247 58.396 21.2547 59.346 20.52 60.182C19.7853 61.018 18.8987 61.6893 17.86 62.196C16.8213 62.7027 15.6813 62.956 14.44 62.956H8.056V72H2.812ZM8.056 58.358H14.136C15.0987 58.358 15.8967 57.9653 16.53 57.18C17.1887 56.3947 17.518 55.3307 17.518 53.988C17.518 53.304 17.4167 52.696 17.214 52.164C17.0113 51.6067 16.7453 51.138 16.416 50.758C16.0867 50.378 15.694 50.0993 15.238 49.922C14.8073 49.7193 14.364 49.618 13.908 49.618H8.056V58.358ZM44.4998 72H39.4078V60.828C39.4078 59.2573 39.1164 58.1047 38.5338 57.37C37.9511 56.61 37.1278 56.23 36.0638 56.23C35.6078 56.23 35.1264 56.3313 34.6198 56.534C34.1131 56.7367 33.6318 57.028 33.1758 57.408C32.7198 57.7627 32.3018 58.1933 31.9218 58.7C31.5418 59.2067 31.2631 59.764 31.0858 60.372V72H25.9938V44.26H31.0858V55.774C31.8204 54.482 32.8084 53.494 34.0498 52.81C35.3164 52.1007 36.7098 51.746 38.2298 51.746C39.5218 51.746 40.5731 51.974 41.3838 52.43C42.1944 52.8607 42.8278 53.4433 43.2838 54.178C43.7398 54.9127 44.0564 55.7487 44.2338 56.686C44.4111 57.6233 44.4998 58.586 44.4998 59.574V72ZM54.3614 72.38C53.3987 72.38 52.4994 72.228 51.6634 71.924C50.8274 71.5947 50.1054 71.1513 49.4974 70.594C48.8894 70.0113 48.408 69.34 48.0534 68.58C47.724 67.82 47.5594 66.984 47.5594 66.072C47.5594 65.1347 47.762 64.2733 48.1674 63.488C48.598 62.6773 49.1807 61.9933 49.9154 61.436C50.6754 60.8787 51.5747 60.448 52.6134 60.144C53.652 59.8147 54.792 59.65 56.0334 59.65C56.92 59.65 57.7814 59.726 58.6174 59.878C59.4787 60.03 60.2387 60.2453 60.8974 60.524V59.384C60.8974 58.0667 60.5174 57.0533 59.7574 56.344C59.0227 55.6347 57.9207 55.28 56.4514 55.28C55.3874 55.28 54.3487 55.47 53.3354 55.85C52.322 56.23 51.2834 56.7873 50.2194 57.522L48.6614 54.292C51.22 52.5947 53.9814 51.746 56.9454 51.746C59.808 51.746 62.0247 52.4553 63.5954 53.874C65.1914 55.2673 65.9894 57.294 65.9894 59.954V66.148C65.9894 66.68 66.078 67.06 66.2554 67.288C66.458 67.516 66.7747 67.6427 67.2054 67.668V72C66.344 72.1773 65.5967 72.266 64.9634 72.266C64.0007 72.266 63.2534 72.0507 62.7214 71.62C62.2147 71.1893 61.898 70.6193 61.7714 69.91L61.6574 68.808C60.7707 69.9733 59.694 70.86 58.4274 71.468C57.1607 72.076 55.8054 72.38 54.3614 72.38ZM55.8054 68.656C56.6667 68.656 57.4774 68.504 58.2374 68.2C59.0227 67.896 59.6307 67.4907 60.0614 66.984C60.6187 66.5533 60.8974 66.072 60.8974 65.54V63.26C60.2894 63.032 59.6307 62.8547 58.9214 62.728C58.212 62.576 57.528 62.5 56.8694 62.5C55.552 62.5 54.4754 62.804 53.6394 63.412C52.8034 63.9947 52.3854 64.742 52.3854 65.654C52.3854 66.5153 52.7147 67.2373 53.3734 67.82C54.032 68.3773 54.8427 68.656 55.8054 68.656ZM70.6337 72V66.528H74.8137V72H70.6337Z" fill="black"/>
</svg>
